<svg width="80" height="80" viewBox="0 0 80 80" fill="none" xmlns="http://www.w3.org/2000/svg">
<path d="M46.6936 37.5593L30.531 26.0935C28.7959 24.8618 26.3904 25.2707 25.1589 27.0066L24.9996 27.2309C23.7689 28.9664 24.1772 31.3715 25.9129 32.6029L42.0751 44.0694C43.8109 45.3004 46.2157 44.8918 47.4475 43.1564L47.6064 42.9317C48.8383 41.1959 48.429 38.7907 46.6936 37.5593Z" fill="#F9BD80"/>
<path d="M45.7082 33.0776L45.484 32.9187C43.7482 31.6872 41.343 32.0962 40.1116 33.8317L21.7974 59.6463C20.566 61.3818 20.975 63.7873 22.7107 65.0184L22.935 65.1778C24.6707 66.4092 27.0759 66.0005 28.307 64.2647L46.6213 38.45C47.8531 36.714 47.444 34.3093 45.7082 33.0776Z" fill="#4484A7"/>
<path d="M69.6611 41.0255C69.6327 44.94 69.028 48.1948 67.5125 52.16C66.4787 54.8651 64.0569 58.5801 62.0024 60.8403C57.0811 66.2552 50.0901 69.6913 43.1921 70.3415C35.3192 71.0838 28.378 68.976 21.9978 64.2047C22.5955 64.6518 21.4091 63.7041 21.4462 63.7353C21.0898 63.4367 20.7456 63.1243 20.4017 62.8115C19.714 62.1863 19.0654 61.5197 18.431 60.8409C17.0132 59.3228 16.3851 58.456 15.1936 56.5545C13.0756 53.1745 12.0136 50.2824 11.2087 46.2001C10.895 44.6099 10.7872 43.0905 10.7723 41.0256C10.7308 35.2967 1.84335 35.2928 1.88491 41.0256C2.01046 58.4074 13.9238 73.8496 30.7984 78.1909C47.7111 82.5422 65.8796 74.3426 74.0726 59.0081C77.0222 53.4874 78.5035 47.2718 78.5487 41.0253C78.5898 35.2926 69.7025 35.2966 69.6611 41.0255Z" fill="#3C517C"/>
<path d="M10.7721 39.1771C10.8004 35.2628 11.4052 32.0082 12.9207 28.0428C13.9546 25.338 16.3764 21.623 18.4309 19.3624C23.3522 13.9477 30.3428 10.5117 37.2409 9.86127C45.1138 9.11908 52.0554 11.2268 58.4356 15.9983C57.8378 15.5513 59.024 16.4989 58.9869 16.4678C59.3434 16.7662 59.6875 17.0788 60.0315 17.3915C60.7193 18.0165 61.3681 18.6833 62.0025 19.3622C63.4202 20.8802 64.0483 21.747 65.2398 23.6486C67.3578 27.0286 68.4202 29.9205 69.2249 34.0028C69.5385 35.5928 69.6464 37.1124 69.6613 39.1771C69.7026 44.906 78.59 44.9103 78.5488 39.1771C78.4232 21.7952 66.5092 6.35338 49.6348 2.01189C32.7221 -2.33967 14.5539 5.86033 6.36097 21.1948C3.41152 26.7154 1.93011 32.9306 1.88503 39.1771C1.84332 44.9103 10.7307 44.906 10.7721 39.1771Z" fill="#7DA6D4"/>
</svg>
