<svg width="1198" height="693" viewBox="0 0 1198 693" fill="none" xmlns="http://www.w3.org/2000/svg">
<g filter="url(#filter0_dd_10_89)">
<path d="M598.5 44C668.41 44 732.347 69.3483 781.464 111.276C812.703 94.5378 848.692 85 887 85C1006.85 85 1104 178.349 1104 293.5C1104 304.44 1103.12 315.182 1101.43 325.667C1133.76 354.35 1154 395.404 1154 441C1154 527.709 1080.8 598 990.5 598C956.862 598 925.599 588.243 899.606 571.52C869.868 610.607 821.773 636 767.5 636C735.159 636 705.013 626.982 679.636 611.424C651.074 634.852 614.008 649 573.5 649C524.864 649 481.189 628.608 451.239 596.242C422.344 620.971 384.251 636 342.5 636C294.467 636 251.272 616.11 221.359 584.44C216.79 584.809 212.168 585 207.5 585C117.201 585 44 514.709 44 428C44 386.952 60.4073 349.584 87.2656 321.61C84.4724 308.678 83 295.26 83 281.5C83 176.29 168.961 91 275 91C319.879 91 361.16 106.279 393.852 131.878C445.028 77.791 517.782 44 598.5 44Z" fill="#F7FFF7"/>
</g>
<defs>
<filter id="filter0_dd_10_89" x="0" y="0" width="1198" height="693" filterUnits="userSpaceOnUse" color-interpolation-filters="sRGB">
<feFlood flood-opacity="0" result="BackgroundImageFix"/>
<feColorMatrix in="SourceAlpha" type="matrix" values="0 0 0 0 0 0 0 0 0 0 0 0 0 0 0 0 0 0 127 0" result="hardAlpha"/>
<feOffset dx="4" dy="4"/>
<feGaussianBlur stdDeviation="20"/>
<feComposite in2="hardAlpha" operator="out"/>
<feColorMatrix type="matrix" values="0 0 0 0 0.557692 0 0 0 0 0.557692 0 0 0 0 0.557692 0 0 0 0.25 0"/>
<feBlend mode="normal" in2="BackgroundImageFix" result="effect1_dropShadow_10_89"/>
<feColorMatrix in="SourceAlpha" type="matrix" values="0 0 0 0 0 0 0 0 0 0 0 0 0 0 0 0 0 0 127 0" result="hardAlpha"/>
<feOffset dx="-4" dy="-4"/>
<feGaussianBlur stdDeviation="20"/>
<feComposite in2="hardAlpha" operator="out"/>
<feColorMatrix type="matrix" values="0 0 0 0 0.918269 0 0 0 0 0.918269 0 0 0 0 0.918269 0 0 0 1 0"/>
<feBlend mode="normal" in2="effect1_dropShadow_10_89" result="effect2_dropShadow_10_89"/>
<feBlend mode="normal" in="SourceGraphic" in2="effect2_dropShadow_10_89" result="shape"/>
</filter>
</defs>
</svg>
