<svg width="80" height="80" viewBox="0 0 80 80" fill="none" xmlns="http://www.w3.org/2000/svg">
<path d="M70.4194 65.4143C70.3827 65.9707 70.39 66.0477 70.441 65.6454C70.3821 65.9451 70.3042 66.2409 70.2079 66.5307C70.3804 66.1826 70.3468 66.2438 70.1067 66.7145C69.5503 67.7879 70.5404 66.3578 69.7444 67.2575C69.0882 67.9994 69.3646 67.6867 68.4889 68.1404C68.8447 67.9805 68.7704 67.9887 68.2661 68.1655C67.0824 68.5181 68.8536 68.2058 67.5868 68.2466C67.0305 68.2099 66.9535 68.2172 67.3557 68.2684C67.056 68.2097 66.7603 68.1318 66.4705 68.0352C66.8184 68.2079 66.7573 68.1741 66.2869 67.9341C65.2134 67.3775 66.6434 68.3679 65.7436 67.5718C65.002 66.9157 65.3148 67.1918 64.8609 66.3162C65.0209 66.6722 65.0125 66.5978 64.836 66.0935C64.4832 64.9096 64.7954 66.6811 64.7546 65.4143C64.7911 64.8578 64.7841 64.7807 64.7329 65.1831C64.7919 64.8834 64.8698 64.5877 64.9661 64.2978C64.7935 64.6459 64.8273 64.5847 65.0673 64.1141C65.6237 63.0407 64.6334 64.4708 65.4296 63.5711C66.0857 62.829 65.8095 63.1418 66.6851 62.688C66.3293 62.848 66.4033 62.8397 66.9076 62.6629C68.0915 62.3104 66.3203 62.6227 67.5868 62.5818C68.1432 62.6187 68.2203 62.6114 67.8181 62.5601C68.1179 62.6189 68.4135 62.6967 68.7033 62.7933C68.3556 62.6206 68.4167 62.6543 68.8871 62.8945C69.9606 63.4509 68.5307 62.4607 69.4304 63.2566C70.172 63.9129 69.8593 63.6368 70.3131 64.5125C70.1532 64.1564 70.1615 64.2307 70.3381 64.7349C70.6907 65.9188 70.3784 64.1473 70.4194 65.4143C70.6026 71.0774 79.4084 71.0954 79.2246 65.4143C79.015 58.9362 74.0648 53.986 67.5868 53.7766C61.1129 53.5672 56.1488 59.2534 55.9493 65.4143C55.7399 71.8882 61.426 76.8524 67.5868 77.0518C74.0609 77.2614 79.0252 71.5752 79.2246 65.4143C79.4084 59.733 70.6026 59.7511 70.4194 65.4143Z" fill="#3C517C"/>
<path d="M13.3369 38.8419C13.3369 39.6038 13.488 40.3583 13.7814 41.0622C14.0749 41.7661 14.505 42.4057 15.0473 42.9445C15.5895 43.4832 16.2333 43.9106 16.9418 44.2021C17.6502 44.4937 18.4096 44.6438 19.1764 44.6438C19.9433 44.6438 20.7027 44.4937 21.4111 44.2021C22.1196 43.9106 22.7634 43.4832 23.3056 42.9445C23.8479 42.4057 24.278 41.7661 24.5715 41.0622C24.8649 40.3583 25.016 39.6038 25.016 38.8419C25.016 38.08 24.8649 37.3255 24.5715 36.6216C24.278 35.9177 23.8479 35.2781 23.3056 34.7394C22.7634 34.2006 22.1196 33.7733 21.4111 33.4817C20.7027 33.1901 19.9433 33.04 19.1764 33.04C18.4096 33.04 17.6502 33.1901 16.9418 33.4817C16.2333 33.7733 15.5895 34.2006 15.0473 34.7394C14.505 35.2781 14.0749 35.9177 13.7814 36.6216C13.488 37.3255 13.3369 38.08 13.3369 38.8419Z" fill="#4484A7"/>
<path d="M31.0289 38.8419C31.0289 40.3807 31.6442 41.8564 32.7393 42.9445C33.8344 44.0325 35.3197 44.6438 36.8684 44.6438C38.4171 44.6438 39.9024 44.0325 40.9975 42.9445C42.0926 41.8564 42.7078 40.3807 42.7078 38.8419C42.7078 37.3032 42.0926 35.8274 40.9975 34.7394C39.9024 33.6513 38.4171 33.04 36.8684 33.04C35.3197 33.04 33.8344 33.6513 32.7393 34.7394C31.6442 35.8274 31.0289 37.3032 31.0289 38.8419Z" fill="#FDCFC2"/>
<path d="M48.7206 38.8419C48.7206 40.3807 49.3358 41.8564 50.4309 42.9445C51.526 44.0325 53.0113 44.6438 54.56 44.6438C56.1088 44.6438 57.594 44.0325 58.6891 42.9445C59.7843 41.8564 60.3995 40.3807 60.3995 38.8419C60.3995 37.3032 59.7843 35.8274 58.6891 34.7394C57.594 33.6513 56.1088 33.04 54.56 33.04C53.0113 33.04 51.526 33.6513 50.4309 34.7394C49.3358 35.8274 48.7206 37.3032 48.7206 38.8419Z" fill="#F9BD80"/>
<path d="M63.8786 39.7508C63.8227 46.9288 61.0729 53.5764 56.034 58.69C51.0232 63.775 44.1958 66.4791 37.0952 66.5345C29.9599 66.5902 23.2127 63.6721 18.1567 58.69C13.0717 53.679 10.3676 46.8514 10.3122 39.7508C10.268 34.0751 1.46278 34.0708 1.507 39.7508C1.64099 56.9464 14.3574 72.3195 31.5334 74.8757C49.068 77.4852 65.9258 66.9071 71.1938 49.9694C72.2136 46.6911 72.657 43.1768 72.6838 39.7508C72.7282 34.0708 63.9229 34.0751 63.8786 39.7508Z" fill="#3C517C"/>
<path d="M10.3123 38.0504C10.3681 30.8726 13.1177 24.2248 18.1568 19.1113C23.1676 14.0263 29.9949 11.3218 37.0953 11.2664C44.2308 11.2108 50.9781 14.1289 56.0342 19.1113C61.1191 24.1224 63.8234 30.9499 63.8788 38.0504C63.923 43.7258 72.7282 43.7304 72.684 38.0504C72.5499 20.8546 59.833 5.48169 42.657 2.9252C25.1224 0.315435 8.26494 10.8944 2.99712 27.8319C1.97759 31.11 1.53377 34.6247 1.50712 38.0504C1.46283 43.7304 10.2681 43.7258 10.3123 38.0504Z" fill="#7DA6D4"/>
</svg>
