<svg width="586" height="9" viewBox="0 0 586 9" fill="none" xmlns="http://www.w3.org/2000/svg">
<path d="M0.0609602 0.309506C3.93798 0.0698466 7.80887 -0.0174387 11.7943 0.125743C12.7024 0.158168 12.6154 0.363295 12.9886 0.399121C13.6745 0.465263 14.8277 0.251165 14.9892 0.252269C15.9913 0.256292 15.5972 0.613672 15.732 0.628461C17.2346 0.784922 16.8046 0.371846 18.2424 0.342266C20.1148 0.303648 22.5164 0.393434 24.7718 0.429028C25.5638 0.442508 25.2093 0.714204 26.919 0.702817C28.1302 0.694966 31.8474 0.407954 33.5558 0.753385C33.565 0.879473 33.348 1.01713 33.2563 1.14656C35.712 0.638097 36.5895 0.667142 40.0652 0.818952C40.6151 0.842878 41.1374 0.630654 42.1057 0.716931C43.0736 0.803272 43.1122 1.13619 45.0598 1.14548C45.7505 1.14797 46.1713 0.916255 47.2306 0.91342C50.2434 0.904791 55.9789 1.23539 58.4514 1.26237C63.3206 1.31582 65.9727 0.933579 70.2962 1.10226C70.6291 1.11462 69.8958 1.3667 70.5063 1.37593C71.1219 1.38518 71.7653 1.04896 71.9168 1.04193C73.552 0.965436 77.0036 1.44535 77.9132 1.39636C80.1243 1.27637 77.9473 1.11138 81.0108 1.06779C83.9278 1.02633 87.9516 1.49732 90.8422 1.60379C94.1918 1.72745 95.2767 1.09069 97.795 1.78043C106.656 1.80169 115.552 1.83846 124.423 1.86484C124.397 1.99872 124.367 2.13263 124.336 2.26648C125.038 2.17852 125.74 2.09042 126.442 2.00346C126.335 2.10253 126.234 2.20173 126.127 2.29979C129.425 1.93726 132.362 1.7587 136.211 1.89081C136.286 1.89333 136.086 2.15926 136.149 2.16658C137.016 2.22293 137.988 2.02394 138.749 2.07755C140.59 2.20609 143.715 2.81031 142.342 2.08807C146.635 2.26461 151.683 2.05811 155.774 2.22417C157.544 2.29575 158.072 2.72182 158.919 2.75199C159.766 2.78194 159.337 2.416 159.638 2.4041C161.445 2.3358 164.418 2.3711 164.728 2.7795C165.092 2.61971 165.478 2.45808 165.847 2.29732C165.628 2.74629 171.212 2.59827 172.676 2.6193C172.944 2.62314 172.98 2.82085 173.182 2.82021C175.431 2.8103 175.983 2.50458 177.911 2.4149C178.587 2.38323 177.537 2.72403 179.273 2.58566C179.425 2.57351 179.347 2.26034 181.42 2.27654C184.73 2.30219 191.064 2.2215 195.004 2.40268C195.327 2.41698 194.341 2.75104 195.819 2.6817C196.354 2.65713 196.099 2.41341 197.396 2.42026C202.422 2.44455 207.779 2.75939 212.908 2.56355C212.719 2.8355 210.891 3.12951 213.637 2.97689C214.076 2.95159 213.75 2.70535 213.947 2.69762C215.541 2.63801 216.923 2.82176 218.649 2.73984C219.158 2.71509 219.286 2.52436 219.922 2.48334C220.861 2.42224 221.275 2.69826 222.365 2.58977C224.071 2.41894 224.336 2.16177 226.446 2.6842C238.426 2.73385 250.351 2.67236 262.288 2.9778C265.74 2.85622 268.926 2.71578 272.524 2.68492C273.584 2.67603 273.784 3.02419 275.475 2.92087C275.854 2.89825 278.557 2.54453 278.946 3.24796C279.698 3.19264 280.173 3.19385 280.819 3.16097C280.33 3.05478 279.825 2.94735 279.357 2.84029C282.081 2.97083 284.308 2.73901 286.721 2.63855C288.497 2.56504 287.234 2.85691 288.324 2.83415C289.414 2.81237 289.91 2.74814 291.27 3.11737C292.342 2.70946 293.052 3.00554 295.024 3.03012C295.236 3.03257 296.463 2.87993 297.487 2.91908C298.223 2.9473 298.44 3.20774 299.609 3.17561C299.801 3.17088 302.277 2.86695 303.064 2.84308C304.291 2.80508 306.237 3.15037 306.474 3.15602C309.92 3.238 311.25 2.91937 313.694 3.47548C314.191 3.15831 316.234 2.98466 317.884 3.02711C319.967 3.08069 324.142 3.76469 324.717 3.07597C327.126 3.40095 326.866 3.20877 329.726 3.22223C332.33 3.23398 339.221 3.54605 341.331 3.52223C343.441 3.49935 342.416 3.10711 343.253 3.06142C344.625 2.9853 343.883 3.26446 344.821 3.26685C347.475 3.27289 349.782 3.23434 352.316 3.12765C352.451 3.32814 352.596 3.5297 352.736 3.73023C352.867 3.66462 352.998 3.59893 353.13 3.53333C353.675 3.53907 354.286 3.53915 354.79 3.54865C350.538 2.64351 358.903 3.64156 361.415 3.68092C363.534 3.71356 367.065 3.32221 369.392 3.24838C369.957 3.23017 369.567 3.44315 369.683 3.43898C371.046 3.38679 371.254 3.24094 373.085 3.27363C374.054 3.29136 375.041 3.56816 375.985 3.57973C382.912 3.6634 389.601 3.43779 396.484 3.4556C397.654 3.45856 398.662 3.79511 399.646 3.80896C401.053 3.82867 401.943 3.56484 403.265 3.56972C404.582 3.57469 406.478 3.91023 407.371 3.86697C408.265 3.82469 406.739 3.50166 408.373 3.59854C409.124 3.64306 407.796 3.86676 408.724 3.88019C411.62 3.92217 415.709 3.66185 418.79 3.96214C418.655 3.89166 418.469 3.8278 418.303 3.76013C421.588 3.80982 424.489 3.99705 427.88 4.04443C429.065 4.06154 431.205 3.87181 432.371 3.88074C433.536 3.88971 434.065 4.11507 434.998 4.1276C435.382 4.13324 435.233 3.93351 435.49 3.9393C438.709 4.01378 440.473 4.37958 443.843 4.36234C456.192 4.29956 468.925 4.25951 481.466 4.21216C481.97 4.21034 482.311 3.95379 483.048 3.92053C484.183 3.86901 484.237 4.09822 484.388 4.10731C485.376 4.16443 484.975 3.94988 486.302 3.95895C489.223 3.97893 493.935 4.1988 496.847 4.20258C503.559 4.21116 509.202 4.04799 515.782 3.99115C516.257 3.98633 515.933 4.29059 516.755 4.30025C522.552 4.37211 523.781 4.08707 530.996 4.21908C538.212 4.35111 551.831 4.62988 560.277 4.72998C560.277 4.73069 560.277 4.7314 560.277 4.73212C562.94 4.18371 566.38 4.34816 569.233 4.7961C552.752 6.08092 536.998 5.35127 519.407 5.28644C500.918 5.21751 481.2 6.09811 462.465 5.8319C460.704 5.80675 459.999 5.47922 458.515 5.53663C458.264 5.54634 458.912 5.79947 458.14 5.81942C447.542 6.08573 436.247 5.44166 425.841 5.52776C423.035 5.55093 422.593 5.82521 420.125 5.87994C420.56 5.75187 420.844 5.6168 421.224 5.48734C409.964 5.00098 398.683 5.10635 387.274 4.96986C386.76 4.96325 386.696 4.69154 386.156 4.67777C385.076 4.64926 384.04 4.94063 383.097 4.94434C381.865 4.94903 381.654 4.73175 380.518 4.7381C379.964 4.74154 380.128 4.95008 378.924 4.90665C378.823 4.90294 378.758 4.68488 377.956 4.70746C375.761 4.77009 371.274 4.92195 369.456 4.964C367.135 5.01768 365.275 4.67715 364.397 4.64985C362.026 4.57617 362.073 4.91218 360.066 4.89857C345.775 4.80287 332.116 4.32752 317.487 4.23052C316.568 4.22439 313.167 4.57486 311.466 4.54826C310.896 4.53831 307.917 4.41922 307.47 4.40801C305.659 4.36437 304.095 4.12774 303.096 4.07352C301.159 3.9676 298.992 4.3056 297.937 4.33367C296.085 4.38349 292.796 4.31463 292.018 4.30022C290.141 4.26521 290.765 3.83304 289.417 3.92566C289.018 3.95336 289.433 4.29079 288.031 4.2812C286.856 4.27202 286.382 4.01681 285.58 3.96596C284.778 3.91539 283.304 4.29497 282.804 4.28178C280.19 4.20946 279.035 3.94622 276.189 3.91366C273.826 3.88746 262.901 3.99138 261.992 4.07691C257.922 4.45906 264.698 4.32145 265.079 4.3379C267.143 4.43166 266.84 4.58689 268.9 4.30054C270.736 5.23971 277.165 3.84092 278.802 4.95117C280.508 4.2308 281.934 4.6096 283.725 4.76905C286.199 4.98944 284.317 4.54998 286.123 4.5593C286.835 4.56338 288.896 4.90999 289.966 4.87094C291.035 4.83177 291.488 4.57988 292.92 4.57557C295.478 4.56689 297.537 4.69997 299.684 5.02009C300.078 4.88771 300.447 4.75509 300.836 4.62267C302.319 4.77801 303.807 4.93248 305.289 5.0868C305.053 4.96721 304.816 4.8466 304.58 4.72701C305.014 4.71284 305.45 4.69965 305.884 4.68649C307.325 4.87379 308.703 5.0475 310.185 5.24113C314.22 4.58632 313.047 5.16892 315.286 5.27296C317.525 5.3769 318.825 4.99074 320.555 5.00044C322.886 5.01335 323.957 4.97137 326.308 5.01566C327.671 5.04111 329.979 5.4381 328.086 4.82121C332.34 4.8019 338.165 4.67318 341.968 4.94421C343.091 5.02338 341.592 5.20334 341.784 5.2283C342.736 5.34671 343.542 5.04384 344.525 5.09475C346.159 5.17952 349.341 5.44137 350.628 5.50668C352.48 5.60101 355.394 5.2215 355.692 5.1943C357.357 5.04344 357.8 5.37809 358.335 5.35887C361.379 5.24659 362.051 5.11191 363.005 5.81807C363.795 5.52097 367.098 5.03457 367.892 5.54904C367.916 5.08949 370.655 5.18571 372.341 5.0823C372.653 5.21753 372.97 5.35199 373.282 5.48823C376.805 4.68957 383.805 5.33507 388.431 5.46455C388.547 5.46736 388.757 5.12423 389.453 5.20663C389.497 5.2133 389.424 5.36764 389.891 5.39091C391.43 5.466 397.3 5.89291 397.975 5.90092C400.463 5.93104 400.9 5.67685 402.414 5.663C404.407 5.64437 404.693 5.87841 406.59 5.8582C407.478 5.84915 408.288 5.54921 409.685 5.60194C410.512 5.63279 410.592 5.87324 411.247 5.89706C413.578 5.98257 415.292 5.84289 417.358 6.16957C417.903 5.41018 418.888 5.97939 419.912 6.0439C424.068 6.30724 429.253 6.02022 432.82 6.11415C443.95 6.40905 453.817 6.94716 464.691 7.1274C466.457 7.15661 466.885 6.77639 468.737 6.81325C469.569 6.83015 470.425 7.11344 471.787 7.12679C472.882 7.13825 474.451 7.00795 475.819 7.01823C476.182 7.02072 476.212 7.28107 476.747 7.28674C480.804 7.32957 484.767 7.17197 488.865 7.07295C490.383 7.03606 491.32 7.38716 491.067 6.78557C491.646 6.93672 492.21 7.06875 492.754 7.21765C494.845 6.85384 496.549 7.25952 499.375 7.18205C499.68 7.1726 501.816 6.77248 503.025 7.08005C503.112 6.86694 502.925 6.6842 502.962 6.4909C504.158 6.41742 505.994 6.6768 506.801 6.70759C507.607 6.73828 508.149 6.46438 508.392 6.46333C509.315 6.46258 509.098 6.8262 509.168 6.83273C513.47 7.21196 513.018 7.01437 515.62 6.48468C516.272 6.35103 520.688 6.78232 521.584 6.35607C521.623 6.53271 521.376 6.68624 521.304 6.85406C522.631 6.90851 523.968 6.96424 525.3 7.01872C525.018 6.8474 524.68 6.67552 524.424 6.50337C527.142 6.66915 529.407 6.28548 531.632 6.31368C532.903 6.33045 532.745 6.70359 533.493 6.62702C533.639 6.61184 533.394 6.35731 533.827 6.33999C537.366 6.19983 538.914 6.47756 542.456 6.55219C544.116 6.58762 545.572 6.13798 547.951 6.4567C548.168 6.48651 550.502 6.91056 551.949 6.33572C552.407 6.52337 552.811 6.62306 553.153 6.78068C556.081 5.93255 555.268 6.77781 559.217 7.00648C561.261 7.12525 568.139 7.02016 570.365 6.94262C571.691 6.89517 571.669 6.55379 571.905 6.54176C573.319 6.47278 573.318 6.80352 574.624 6.75811C575.932 6.7126 577.585 6.34977 578.928 6.39323C579.956 6.42666 579.142 6.83204 580.662 6.69929C580.976 6.67046 580.08 6.31559 581.681 6.46333C581.933 6.48623 584.49 6.88092 585.014 6.96618C583.665 7.17576 579.757 7.4345 578.288 7.51318C552.991 8.87281 502.055 8.54048 475.054 8.16327C472.547 8.12893 470.909 7.75877 469.275 7.71633C467.64 7.67389 469.02 8.01221 467.537 7.97484C466.053 7.93646 464.974 7.69702 463.587 7.66736C454.232 7.46628 444.808 7.2567 435.529 7.12973C433.122 7.09714 431.196 7.35128 429.006 7.33631C428.154 7.33032 428.13 6.98548 427.525 6.98436C421 6.967 414.962 7.25741 408.474 7.17272C405.779 7.13711 402.87 6.82684 400.201 6.78136C398.002 6.74313 395.72 6.92606 393.742 6.91664C392.668 6.91232 392.103 6.64595 391.715 6.62262C390.363 6.54481 390.834 6.86868 390.142 6.86395C388.235 6.84983 387.289 6.45622 385.503 6.47424C384.802 6.48154 384.89 6.72885 383.872 6.76035C382.58 6.7999 383.059 6.57559 382.137 6.5611C382.082 6.55971 382.261 6.73734 381.772 6.74111C378.623 6.76595 374.69 6.87813 371.653 6.84526C365.371 6.7781 359.171 6.39585 353.319 6.28928C351.84 6.26303 352.231 6.49567 351.762 6.50356C349.501 6.54046 348.696 6.25988 346.329 6.3425C345.935 6.35599 344.348 6.66353 342.834 6.57253C342.017 6.52352 341.091 6.31858 340.395 6.26744C339.699 6.21632 339.585 6.50799 338.749 6.50247C337.225 6.49306 337.669 6.2934 335.489 6.31477C334.611 6.32288 331.678 6.5799 329.418 6.54335C325.724 6.48381 321.148 6.19938 316.793 6.16557C315.3 6.15334 313.379 6.44073 311.063 6.42792C308.232 6.41258 303.016 6.30858 300.115 6.2847C298.631 6.27254 298.526 5.95703 298.35 5.94272C297.216 5.8474 297.672 6.20222 296.911 6.18314C295.866 6.15684 294.893 5.89075 293.945 5.86713C293.34 5.85202 293.242 6.11056 293.111 6.11168C288.256 6.16419 283.967 6.11065 279.143 6.1059C253.27 6.07822 227.149 6.23236 201.329 5.90558C199.164 5.87868 199.085 5.55134 197.182 5.58974C195.28 5.62714 193.437 6.32036 191.878 5.53027C191.826 5.68722 191.831 5.79939 191.779 5.94222C187.85 5.69358 183.917 5.89624 180.072 5.89818C177.226 5.89989 174.703 5.85755 172.074 5.82244C169.744 5.79031 169.947 5.51764 167.927 5.86153C157.902 5.56914 147.767 5.55434 137.829 5.11432C135.494 5.68418 133.262 5.29982 130.038 5.19106C129.64 5.17737 130.065 5.39403 128.885 5.36782C127.402 5.33535 126.637 5.00355 124.141 5.00455C123.479 5.00507 118.581 5.33365 116.771 5.13574C114.96 4.93787 112.337 4.81105 110.456 4.62074C110.723 4.7627 111.06 4.89907 111.357 5.03922C110.418 5.057 109.475 5.07387 108.536 5.09165C108.401 4.92233 108.265 4.75288 108.135 4.58259C107.589 4.73917 107.043 4.89378 106.492 5.05234C105.312 4.17924 106.526 4.46968 103.886 4.67043C102.563 4.77028 101.514 4.61197 100.156 4.6904C99.667 4.71929 99.3524 4.97186 98.813 5.00075C97.4906 5.07034 98.2634 4.72504 97.4469 4.72131C96.6243 4.71871 95.4408 5.0957 93.9685 4.91422C95.5115 4.23825 91.0638 4.4318 90.8483 4.96369C90.319 4.96105 89.8755 4.93585 89.2907 4.94693C89.8398 3.60359 87.0616 4.54056 85.9603 4.71755C84.8597 4.89427 84.9066 4.53264 84.6492 4.545C83.9077 4.57927 84.4465 4.73325 83.9271 4.73477C80.4854 4.74149 77.2466 4.49837 73.8506 4.45499C73.3621 4.44878 73.794 4.65627 73.2246 4.63229C72.6545 4.60823 72.1094 4.40089 71.2667 4.40924C71.0405 4.41127 70.9683 4.59046 70.616 4.58821C63.2335 4.52967 56.225 4.32867 48.6963 4.254C48.0151 4.24732 47.478 4.56312 46.1613 4.54308C44.8446 4.52298 42.8485 4.22103 41.2138 4.18758C40.7799 4.17856 40.6603 4.44385 40.0851 4.43286C38.1277 4.39523 36.4429 4.16705 34.4098 4.11786C30.9743 4.03493 27.3757 4.17267 23.8905 3.99161C23.2297 3.95785 23.3368 3.73664 22.384 3.66757C20.7397 3.54844 21.3566 3.87629 21.0232 3.91737C19.9327 4.04997 19.5932 3.6175 18.5384 3.72093C18.3772 3.73694 18.6053 3.99359 18.4607 3.9966C16.2199 4.02564 16.1063 3.42699 13.7224 3.73134C11.6066 3.37311 15.1453 3.28021 15.5098 3.10021C16.4001 2.66272 14.0581 2.12544 12.6767 1.94858C11.4871 1.79629 11.494 2.07251 11.02 2.0694C8.51224 2.05326 4.77741 2.08024 2.87071 1.93616C1.71568 1.84962 3.79941 1.74882 3.20963 1.65404C2.62508 1.55942 2.24483 1.76437 1.64603 1.53348C1.04708 1.30252 -0.173342 0.626529 0.0609602 0.309506ZM210.727 3.23624C206.874 4.29883 196.678 4.11535 191.204 3.97407C186.663 3.85631 182.753 2.99055 183.683 4.21289C188.593 4.25451 192.565 4.15972 197.756 4.23251C198.296 4.24023 201.516 4.37508 202.636 4.4029C203.266 4.41834 203.285 4.61933 204.143 4.62318C204.33 4.62344 205.366 4.36813 205.745 4.37777C207.041 4.40988 210.894 4.83905 211.433 4.83111C212.926 4.80706 212.355 4.49095 213 4.43867C215.166 4.26594 215.401 4.73644 217.547 4.59886C217.93 4.57426 219.205 4.17435 220.794 4.23866C221.44 4.26529 222.539 4.48376 223.033 4.47706C225.728 4.44102 228.738 4.1822 231.205 4.24545C233.227 4.29765 232.681 4.60934 233.751 4.65899C234.82 4.7075 236.114 4.35054 236.846 4.33437C238.017 4.3092 239.439 4.52664 239.802 4.5261C246.957 4.51352 253.322 4.31615 260.226 4.27663C255.539 4.1004 250.857 3.93606 246.201 3.755C243.555 4.06358 244.873 3.76628 243.133 3.65253C241.756 3.56247 241.419 4.11351 239.609 4.03983C239.61 4.03984 239.612 4.03985 239.613 4.03986C238.68 4.00122 236.659 3.6042 234.67 3.75092C234.599 3.75655 234.42 4.04249 232.931 4.0424C229.586 4.0417 224.459 4.15396 220.695 4.06677C219.59 4.04106 219.817 3.741 218.51 3.69475C217.557 3.66125 216.451 3.93257 214.959 3.85999C213.087 3.76754 212.192 3.28171 210.901 3.93937C210.796 3.7007 210.852 3.469 210.727 3.23624ZM107.318 3.10903C107.055 3.08089 103.538 2.3129 104.577 3.1144C109.308 3.49159 114.426 3.3553 119.406 3.58294C117.71 2.78588 114.831 3.07577 111.339 3.10937C111.338 3.10936 111.336 3.10935 111.335 3.10934C111.17 3.11088 111.86 2.91032 110.923 2.94111C110.469 2.95615 108.724 3.25881 107.318 3.10903Z" fill="#FACB5C"/>
</svg>
