<svg width="80" height="80" viewBox="0 0 80 80" fill="none" xmlns="http://www.w3.org/2000/svg">
<path d="M57.5532 34.0516C61.1069 34.0868 64.5052 35.5141 67.0182 38.0271C69.5312 40.5401 70.9587 43.9383 70.994 47.492C71.0391 51.0004 69.5804 54.3531 67.2079 56.8434C64.6485 59.5299 61.193 60.8859 57.5532 60.9327C52.2249 61.0012 52.2185 69.2701 57.5532 69.2016C69.4793 69.0481 79.1093 59.418 79.2628 47.492C79.4162 35.5651 69.2481 25.9329 57.5532 25.7827C52.2185 25.7141 52.2249 33.983 57.5532 34.0516ZM22.2861 60.8834C18.7324 60.8481 15.3341 59.4208 12.8211 56.9077C10.308 54.3947 8.88062 50.9964 8.84537 47.4427C8.80029 43.9341 10.2586 40.5815 12.6314 38.0907C15.1907 35.4043 18.6461 34.0488 22.2861 34.0019C27.6142 33.9334 27.6208 25.6643 22.2861 25.733C10.3598 25.8863 0.729821 35.5162 0.57654 47.4427C0.423259 59.3695 10.5911 69.002 22.2861 69.1522C27.6208 69.2206 27.6143 60.9518 22.2861 60.8834Z" fill="#3C517C"/>
<path d="M26.5374 30.0159C26.5725 26.4622 27.9998 23.0639 30.5128 20.5509C33.0258 18.0379 36.4241 16.6106 39.9778 16.5755C43.4863 16.5304 46.8389 17.9889 49.3292 20.3616C52.0158 22.9209 53.3717 26.376 53.4185 30.0159C53.4871 35.344 61.756 35.3506 61.6875 30.0159C61.5341 18.0899 51.9038 8.45992 39.9778 8.30664C28.051 8.15336 18.4189 18.3209 18.2686 30.0159C18.1999 35.3506 26.4689 35.344 26.5374 30.0159Z" fill="#7DA6D4"/>
<path d="M42.5812 36.9592C43.8735 38.2516 43.8735 40.3464 42.5812 41.6386L32.9804 51.2398C31.6881 52.5318 29.5932 52.5318 28.301 51.2398C27.0087 49.9471 27.0087 47.8521 28.301 46.5602L37.902 36.9592C39.1939 35.6669 41.2891 35.6669 42.5812 36.9592Z" fill="#F9BD80"/>
<path d="M37.9039 36.9592C39.1958 35.6671 41.2909 35.6671 42.5829 36.9592L52.1842 46.5604C53.4762 47.8521 53.4762 49.9475 52.1842 51.2398C50.8919 52.5319 48.7966 52.5319 47.5047 51.2398L37.9039 41.639C36.6111 40.3465 36.6111 38.2515 37.9039 36.9592Z" fill="#F9BD80"/>
<path d="M40.1597 49.5388C42.0325 49.5388 43.5505 51.057 43.5505 52.9294V66.8423C43.5505 68.7148 42.0324 70.2328 40.1597 70.2328C38.2875 70.2328 36.7694 68.7147 36.7694 66.8423V52.9294C36.7695 51.0569 38.2876 49.5388 40.1597 49.5388Z" fill="#4484A7"/>
</svg>
